#!OML:ASF E:\emotionWalksFemale\Project 1\Capture day 1\Session 1\Female1.ASF
:FULLY-SPECIFIED
:DEGREES
1915
root 10.0167 15.2897 -22.3066 -3.65659 5.27796 -4.04276
lowerback 4.25018 -0.154803 1.05638
upperback -4.13904 0.013448 2.3014
thorax -6.70081 0.0197148 1.80935
lowerneck -5.00575 -8.40397 -8.29219
upperneck 23.1493 -17.3238 25.626
head 11.5808 -6.56012 8.88215
rclavicle -7.25564e-015 9.74045e-015
rhumerus -40.1718 5.29291 -86.8573
rradius 34.7632
rwrist 15.3288
rhand -7.70046 -51.7116
rfingers 7.12502
rthumb 18.197 -80.8804
lclavicle -7.25564e-015 9.74045e-015
lhumerus -39.2352 -1.90188 88.1173
lradius 40.0917
lwrist -9.862
lhand -6.61009 -35.2905
lfingers 7.12502
lthumb 19.2458 -6.22283
rfemur 1.48741 17.2526 37.7975
rtibia 20.232
rfoot -15.3781 -29.9644
rtoes 20.2534
lfemur -21.7371 3.33913 -16.3997
ltibia 68.618
lfoot -14.4127 6.44065
ltoes -11.9872
1916
root 10.0178 15.2752 -22.2299 -3.62152 5.07488 -3.97806
lowerback 4.27916 -0.128456 1.03317
upperback -4.08725 0.0454916 2.28907
thorax -6.6632 0.0360595 1.80585
lowerneck -5.1613 -8.3398 -8.37594
upperneck 22.9821 -17.2421 25.8727
head 11.5719 -6.51108 8.99968
rclavicle 3.40419e-015 -1.74931e-014
rhumerus -40.1252 5.5241 -87.0488
rradius 34.9975
rwrist 15.1684
rhand -7.4473 -51.5505
rfingers 7.12502
rthumb 18.4406 -80.6965
lclavicle 3.40419e-015 -1.74931e-014
lhumerus -39.2168 -1.75625 88.1107
lradius 40.1791
lwrist -9.65956
lhand -6.60771 -35.1537
lfingers 7.12502
lthumb 19.2481 -6.08625
rfemur 1.67053 17.1684 37.8493
rtibia 20.5183
rfoot -15.9015 -29.6497
rtoes 20.9885
lfemur -22.5877 3.00777 -16.6477
ltibia 68.0109
lfoot -14.6292 7.68134
ltoes -12.1832
1917
root 10.0172 15.2624 -22.1516 -3.53898 4.84103 -3.84973
lowerback 4.49124 -0.113855 0.915927
upperback -4.20061 0.0645233 2.29254
thorax -6.90719 0.0519754 1.87657
lowerneck -5.36622 -8.27164 -8.52328
upperneck 23.1327 -17.1914 25.9676
head 11.6912 -6.47104 9.08536
rclavicle 9.64106e-015 -4.96962e-014
rhumerus -40.3536 5.73052 -87.2043
rradius 35.3224
rwrist 15.1973
rhand -7.01266 -51.7709
rfingers 7.12502
rthumb 18.8586 -80.8767
lclavicle 9.64106e-015 -4.96962e-014
lhumerus -39.4012 -1.34511 88.0003
lradius 40.0663
lwrist -9.71721
lhand -6.42377 -35.5086
lfingers 7.12502
lthumb 19.4249 -6.45888
rfemur 1.89189 17.1647 37.8459
rtibia 20.7258
rfoot -16.3982 -29.4312
rtoes 21.4692
lfemur -23.4124 2.63645 -16.9375
ltibia 67.2715
lfoot -15.6103 7.10292
ltoes -12.2268
1918
root 10.0171 15.2552 -22.0693 -3.53719 4.64746 -3.82261
lowerback 4.39221 -0.0616081 0.965293
upperback -4.1104 0.12846 2.21255
thorax -6.75481 0.0782361 1.75658
lowerneck -5.47367 -8.29192 -8.40055
upperneck 23.0558 -17.2483 26.0666
head 11.7011 -6.47481 9.08566
rclavicle 1.16041e-014 7.35503e-015
rhumerus -40.3323 5.4803 -87.2901
rradius 35.542
rwrist 15.5622
rhand -6.25261 -51.8123
rfingers 7.12502
rthumb 19.5895 -80.8454
lclavicle 1.16041e-014 7.35503e-015
lhumerus -39.2299 -1.28537 87.879
lradius 39.7719
lwrist -9.6826
lhand -6.36564 -35.5568
lfingers 7.12502
lthumb 19.4808 -6.51273
rfemur 2.19836 17.0971 37.9694
rtibia 20.8466
rfoot -16.4623 -29.4266
rtoes 20.7347
lfemur -24.1791 2.17496 -17.0958
ltibia 66.4337
lfoot -16.1298 6.93106
ltoes -10.6795
1919
root 10.0172 15.2501 -21.9894 -3.62907 4.47024 -3.82053
lowerback 4.42319 -0.0596972 0.997002
upperback -4.04782 0.132512 2.21403
thorax -6.70623 0.0784753 1.73937
lowerneck -5.25424 -8.24972 -8.47418
upperneck 22.8259 -17.1635 26.2403
head 11.5731 -6.46219 9.17751
rclavicle -1.49089e-015 -4.96962e-015
rhumerus -40.3735 5.55112 -87.3828
rradius 35.6479
rwrist 15.8137
rhand -6.03431 -51.6916
rfingers 7.12502
rthumb 19.7994 -80.7031
lclavicle -1.49089e-015 -4.96962e-015
lhumerus -39.5797 -1.13164 87.8504
lradius 40.1799
lwrist -9.56588
lhand -6.1994 -34.787
lfingers 7.12502
lthumb 19.6407 -5.75914
rfemur 2.65679 16.9835 38.1377
rtibia 20.7979
rfoot -16.2814 -29.4743
rtoes 19.3341
lfemur -24.8338 1.66338 -17.2279
ltibia 65.5178
lfoot -16.5792 7.29844
ltoes -11.4294
1920
root 10.0163 15.246 -21.9115 -3.69393 4.26865 -3.82841
lowerback 4.70337 -0.00376169 1.02947
upperback -4.00133 0.213712 2.1848
thorax -6.82049 0.116118 1.68321
lowerneck -5.5361 -8.3165 -8.42999
upperneck 22.7446 -17.2909 26.3744
head 11.6492 -6.48957 9.19042
rclavicle 3.85145e-015 3.47873e-014
rhumerus -40.2663 5.58559 -87.5479
rradius 35.6061
rwrist 15.7444
rhand -6.29708 -51.7287
rfingers 7.12502
rthumb 19.5468 -80.7661
lclavicle 3.85145e-015 3.47873e-014
lhumerus -39.5055 -1.10717 87.8192
lradius 40.0577
lwrist -9.55218
lhand -6.32709 -34.6925
lfingers 7.12502
lthumb 19.5179 -5.65214
rfemur 3.14014 16.8968 38.2954
rtibia 20.6057
rfoot -16.1357 -29.3972
rtoes 18.5959
lfemur -25.4718 1.14786 -17.3349
ltibia 64.5171
lfoot -16.8604 7.96528
ltoes -13.9156
1921
root 10.017 15.2457 -21.8307 -3.72023 4.04418 -3.8859
lowerback 4.83695 0.0277532 1.11921
upperback -3.99783 0.266692 2.19214
thorax -6.89504 0.138068 1.63548
lowerneck -5.59597 -8.33777 -8.41148
upperneck 22.6841 -17.3413 26.4715
head 11.6632 -6.50339 9.21427
rclavicle 6.80837e-015 1.15295e-014
rhumerus -40.3924 5.79276 -87.7972
rradius 35.6741
rwrist 15.3265
rhand -6.80336 -51.5702
rfingers 7.12502
rthumb 19.0599 -80.6563
lclavicle 6.80837e-015 1.15295e-014
lhumerus -39.4097 -0.807345 87.7363
lradius 39.6112
lwrist -9.74702
lhand -6.42836 -35.1139
lfingers 7.12502
lthumb 19.4205 -6.06371
rfemur 3.58163 16.7459 38.4516
rtibia 20.4234
rfoot -16.2107 -29.0782
rtoes 18.8587
lfemur -26.1295 0.596094 -17.348
ltibia 63.3999
lfoot -17.0746 8.47384
ltoes -13.8477
1922
root 10.0206 15.2423 -21.7473 -3.82747 3.82524 -3.84322
lowerback 4.85462 0.0539792 1.14743
upperback -3.86947 0.300457 2.18398
thorax -6.76915 0.152791 1.60621
lowerneck -5.80522 -8.33012 -8.36883
upperneck 22.6577 -17.3512 26.5439
head 11.7079 -6.48446 9.22687
rclavicle -7.70291e-016 8.54774e-015
rhumerus -40.4886 5.8962 -87.9238
rradius 35.8898
rwrist 15.0787
rhand -7.09083 -51.2233
rfingers 7.12502
rthumb 18.7835 -80.3364
lclavicle -7.70291e-016 8.54774e-015
lhumerus -39.2458 -0.47973 87.65
lradius 39.2438
lwrist -9.89553
lhand -6.13914 -34.835
lfingers 7.12502
lthumb 19.6986 -5.81307
rfemur 4.15865 16.655 38.5375
rtibia 20.2545
rfoot -16.4282 -28.8066
rtoes 19.6547
lfemur -26.5251 0.0293887 -17.4724
ltibia 62.1691
lfoot -17.3898 8.90941
ltoes -13.8529
1923
root 10.0254 15.237 -21.6628 -3.90785 3.69938 -3.71616
lowerback 4.93393 0.0509171 1.09843
upperback -3.77955 0.290568 2.16064
thorax -6.71918 0.149391 1.60976
lowerneck -6.32642 -8.34891 -8.35011
upperneck 22.8542 -17.4378 26.5299
head 11.9189 -6.47082 9.20325
rclavicle -4.19933e-015 -4.1546e-014
rhumerus -40.5326 5.78964 -87.8429
rradius 35.9872
rwrist 15.6477
rhand -6.34717 -51.5509
rfingers 7.12502
rthumb 19.4986 -80.5932
lclavicle -4.19933e-015 -4.1546e-014
lhumerus -39.2487 -0.0987422 87.5427
lradius 39.0242
lwrist -10.0469
lhand -5.92266 -34.2817
lfingers 7.12502
lthumb 19.9067 -5.28122
rfemur 4.75953 16.579 38.5443
rtibia 20.0213
rfoot -16.5227 -28.656
rtoes 19.8962
lfemur -26.7909 -0.503854 -17.7321
ltibia 60.8789
lfoot -17.5781 9.42303
ltoes -16.5061
1924
root 10.0289 15.2382 -21.579 -3.85352 3.64495 -3.69406
lowerback 4.89958 0.0967379 1.19749
upperback -3.89934 0.355727 2.05847
thorax -6.82649 0.17418 1.44117
lowerneck -5.49677 -8.31392 -8.45685
upperneck 22.3093 -17.3779 27.0798
head 11.5963 -6.51193 9.46009
rclavicle 5.51627e-015 -7.95139e-016
rhumerus -40.9319 5.42449 -87.8566
rradius 36.0524
rwrist 16.124
rhand -5.83623 -52.1983
rfingers 7.12502
rthumb 19.9898 -81.1901
lclavicle 5.51627e-015 -7.95139e-016
lhumerus -39.6493 -0.0395751 87.4072
lradius 38.809
lwrist -10.2399
lhand -6.00176 -34.5081
lfingers 7.12502
lthumb 19.8307 -5.49981
rfemur 5.21411 16.4013 38.5951
rtibia 19.7112
rfoot -16.5042 -28.3551
rtoes 19.5734
lfemur -27.285 -1.06841 -17.855
ltibia 59.5542
lfoot -17.5125 9.97747
ltoes -18.8009
1925
root 10.0299 15.2412 -21.4988 -3.75006 3.43537 -3.76267
lowerback 4.73619 0.126897 1.27822
upperback -3.76576 0.39816 2.11803
thorax -6.59096 0.192877 1.45215
lowerneck -5.97897 -8.26508 -8.47552
upperneck 22.1989 -17.3308 27.2929
head 11.6808 -6.44575 9.54053
rclavicle 2.68359e-015 -7.55382e-015
rhumerus -40.7692 5.47787 -87.8443
rradius 36.1215
rwrist 15.9415
rhand -6.09974 -52.286
rfingers 7.12502
rthumb 19.7365 -81.304
lclavicle 2.68359e-015 -7.55382e-015
lhumerus -39.3781 0.295889 87.3823
lradius 38.3959
lwrist -10.4501
lhand -6.15972 -34.9945
lfingers 7.12502
lthumb 19.6788 -5.97056
rfemur 5.62545 16.273 38.6967
rtibia 19.3308
rfoot -16.6474 -27.9693
rtoes 19.6515
lfemur -27.8804 -1.56269 -17.795
ltibia 58.1941
lfoot -17.527 10.6659
ltoes -19.45
